<?xml version="1.0" encoding="UTF-8" standalone="no"?>
<!-- Created with Inkscape (http://www.inkscape.org/) -->

<svg
   width="960"
   height="540"
   viewBox="0 0 253.99999 142.875"
   version="1.1"
   id="svg5"
   inkscape:version="1.1.1 (c3084ef, 2021-09-22)"
   sodipodi:docname="gfx.svg"
   xmlns:inkscape="http://www.inkscape.org/namespaces/inkscape"
   xmlns:sodipodi="http://sodipodi.sourceforge.net/DTD/sodipodi-0.dtd"
   xmlns="http://www.w3.org/2000/svg"
   xmlns:svg="http://www.w3.org/2000/svg">
  <sodipodi:namedview
     id="namedview7"
     pagecolor="#ffffff"
     bordercolor="#666666"
     borderopacity="1.0"
     inkscape:pageshadow="2"
     inkscape:pageopacity="0.0"
     inkscape:pagecheckerboard="0"
     inkscape:document-units="mm"
     showgrid="false"
     units="px"
     inkscape:zoom="1.0482005"
     inkscape:cx="102.55672"
     inkscape:cy="187.94114"
     inkscape:current-layer="layer1"
     inkscape:window-width="1440"
     inkscape:window-height="872"
     inkscape:window-x="0"
     inkscape:window-y="28"
     inkscape:window-maximized="0" />
  <defs
     id="defs2" />
  <g
     inkscape:label="Warstwa 1"
     inkscape:groupmode="layer"
     id="layer1">
    <g
       id="blue"
       transform="matrix(0.88881721,0,0,0.83468629,-13.709726,4.485712)"
       style="stroke-width:1.0009">
      <rect
         style="fill:#235789;fill-opacity:1;stroke:none;stroke-width:0.500446;stroke-linecap:round;stroke-linejoin:round;stroke-opacity:1"
         id="rect1113"
         width="11.973675"
         height="11.973675"
         x="13.605381"
         y="75.363968"
         transform="rotate(-44.999999)" />
      <g
         id="g832"
         transform="matrix(0.07188542,0,0,0.07222177,43.855946,19.014052)"
         style="stroke-width:3.67534">
        <g
           id="g830"
           style="stroke-width:3.67534">
          <path
             d="m 500.633,341.391 c 0,-0.002 0,-0.004 0,-0.006 0,-0.133 -0.014,-0.262 -0.02,-0.394 -0.2,-5.008 -2.229,-9.691 -5.809,-13.256 l -25.344,-25.22 c -3.067,-3.051 -8.029,-3.042 -11.083,0.027 -3.053,3.068 -3.041,8.03 0.027,11.082 l 20.019,19.921 h -46.781 c -0.406,-0.544 -0.842,-1.072 -1.332,-1.561 l -37.64,-37.453 c -0.485,-0.482 -1.008,-0.91 -1.55,-1.31 v -46.543 l 48.481,48.239 c 3.068,3.053 8.03,3.041 11.082,-0.027 3.053,-3.069 3.041,-8.03 -0.027,-11.082 l -53.712,-53.443 c -3.594,-3.576 -8.323,-5.595 -13.373,-5.769 -0.096,-0.003 -0.191,-0.015 -0.288,-0.015 -0.002,0 -0.003,0 -0.005,0 -0.136,-0.002 -0.27,-0.02 -0.405,-0.02 -5.314,0 -10.312,2.061 -14.074,5.803 l -97.861,97.371 c -3.77,3.753 -5.846,8.746 -5.846,14.057 0,5.311 2.076,10.303 5.848,14.058 l 97.86,97.373 c 3.589,3.568 8.307,5.586 13.346,5.767 0.002,0 0.003,0 0.005,0 0.24,0.008 0.479,0.034 0.721,0.034 5.312,0 10.31,-2.06 14.073,-5.803 l 97.861,-97.372 c 3.77,-3.753 5.846,-8.746 5.846,-14.057 0.001,-0.133 -0.016,-0.266 -0.019,-0.401 z M 375.447,245.86 v 46.792 c -0.847,0.538 -1.647,1.161 -2.375,1.885 l -37.639,37.451 c -0.82,0.817 -1.511,1.725 -2.093,2.692 h -47.156 z m -1.137,190.735 -8.579,-8.536 -78.095,-77.706 h 46.7 c 0.342,0.432 0.702,0.853 1.098,1.247 l 37.639,37.452 c 0.392,0.39 0.808,0.744 1.236,1.08 v 46.463 z m 8.562,-59.904 -35.072,-34.898 35.072,-34.898 35.072,34.898 z m 7.112,61.348 0.001,-46.916 c 0.964,-0.577 1.872,-1.261 2.69,-2.073 l 37.64,-37.452 c 0.731,-0.728 1.36,-1.528 1.903,-2.376 h 47.031 z"
             id="path828"
             style="stroke-width:3.67534" />
        </g>
      </g>
    </g>
    <g
       id="g846"
       transform="matrix(0.23518519,0,0,0.22122222,19.684121,49.431243)" />
    <g
       id="g848"
       transform="matrix(0.23518519,0,0,0.22122222,19.684121,49.431243)" />
    <g
       id="g850"
       transform="matrix(0.23518519,0,0,0.22122222,19.684121,49.431243)" />
    <g
       id="g852"
       transform="matrix(0.23518519,0,0,0.22122222,19.684121,49.431243)" />
    <g
       id="g854"
       transform="matrix(0.23518519,0,0,0.22122222,19.684121,49.431243)" />
    <g
       id="g856"
       transform="matrix(0.23518519,0,0,0.22122222,19.684121,49.431243)" />
    <g
       id="g858"
       transform="matrix(0.23518519,0,0,0.22122222,19.684121,49.431243)" />
    <g
       id="g860"
       transform="matrix(0.23518519,0,0,0.22122222,19.684121,49.431243)" />
    <g
       id="g862"
       transform="matrix(0.23518519,0,0,0.22122222,19.684121,49.431243)" />
    <g
       id="g864"
       transform="matrix(0.23518519,0,0,0.22122222,19.684121,49.431243)" />
    <g
       id="g866"
       transform="matrix(0.23518519,0,0,0.22122222,19.684121,49.431243)" />
    <g
       id="g868"
       transform="matrix(0.23518519,0,0,0.22122222,19.684121,49.431243)" />
    <g
       id="g870"
       transform="matrix(0.23518519,0,0,0.22122222,19.684121,49.431243)" />
    <g
       id="g872"
       transform="matrix(0.23518519,0,0,0.22122222,19.684121,49.431243)" />
    <g
       id="g874"
       transform="matrix(0.23518519,0,0,0.22122222,19.684121,49.431243)" />
    <g
       id="red"
       transform="matrix(0.88881721,0,0,0.83468629,1.6758277,-8.693745)"
       style="stroke-width:1.0009">
      <rect
         style="fill:#c1292e;fill-opacity:1;stroke:none;stroke-width:0.500446;stroke-linecap:round;stroke-linejoin:round;stroke-opacity:1"
         id="rect1447"
         width="11.973675"
         height="11.973675"
         x="13.605381"
         y="75.363968"
         transform="rotate(-44.999999)" />
      <g
         id="g1453"
         transform="matrix(0.07188542,0,0,0.07222177,43.855946,19.014052)"
         style="stroke-width:3.67534">
        <g
           id="g1451"
           style="stroke-width:3.67534">
          <path
             d="m 500.633,341.391 c 0,-0.002 0,-0.004 0,-0.006 0,-0.133 -0.014,-0.262 -0.02,-0.394 -0.2,-5.008 -2.229,-9.691 -5.809,-13.256 l -25.344,-25.22 c -3.067,-3.051 -8.029,-3.042 -11.083,0.027 -3.053,3.068 -3.041,8.03 0.027,11.082 l 20.019,19.921 h -46.781 c -0.406,-0.544 -0.842,-1.072 -1.332,-1.561 l -37.64,-37.453 c -0.485,-0.482 -1.008,-0.91 -1.55,-1.31 v -46.543 l 48.481,48.239 c 3.068,3.053 8.03,3.041 11.082,-0.027 3.053,-3.069 3.041,-8.03 -0.027,-11.082 l -53.712,-53.443 c -3.594,-3.576 -8.323,-5.595 -13.373,-5.769 -0.096,-0.003 -0.191,-0.015 -0.288,-0.015 -0.002,0 -0.003,0 -0.005,0 -0.136,-0.002 -0.27,-0.02 -0.405,-0.02 -5.314,0 -10.312,2.061 -14.074,5.803 l -97.861,97.371 c -3.77,3.753 -5.846,8.746 -5.846,14.057 0,5.311 2.076,10.303 5.848,14.058 l 97.86,97.373 c 3.589,3.568 8.307,5.586 13.346,5.767 0.002,0 0.003,0 0.005,0 0.24,0.008 0.479,0.034 0.721,0.034 5.312,0 10.31,-2.06 14.073,-5.803 l 97.861,-97.372 c 3.77,-3.753 5.846,-8.746 5.846,-14.057 0.001,-0.133 -0.016,-0.266 -0.019,-0.401 z M 375.447,245.86 v 46.792 c -0.847,0.538 -1.647,1.161 -2.375,1.885 l -37.639,37.451 c -0.82,0.817 -1.511,1.725 -2.093,2.692 h -47.156 z m -1.137,190.735 -8.579,-8.536 -78.095,-77.706 h 46.7 c 0.342,0.432 0.702,0.853 1.098,1.247 l 37.639,37.452 c 0.392,0.39 0.808,0.744 1.236,1.08 v 46.463 z m 8.562,-59.904 -35.072,-34.898 35.072,-34.898 35.072,34.898 z m 7.112,61.348 0.001,-46.916 c 0.964,-0.577 1.872,-1.261 2.69,-2.073 l 37.64,-37.452 c 0.731,-0.728 1.36,-1.528 1.903,-2.376 h 47.031 z"
             id="path1449"
             style="stroke-width:3.67534" />
        </g>
      </g>
    </g>
    <g
       id="yellow"
       transform="matrix(0.88881721,0,0,0.83468629,0.94662374,19.481366)"
       style="stroke-width:1.0009">
      <rect
         style="fill:#f1d302;fill-opacity:1;stroke:none;stroke-width:0.500446;stroke-linecap:round;stroke-linejoin:round;stroke-opacity:1"
         id="rect1493"
         width="11.973675"
         height="11.973675"
         x="13.605381"
         y="75.363968"
         transform="rotate(-44.999999)" />
      <g
         id="g1499"
         transform="matrix(0.07188542,0,0,0.07222177,43.855946,19.014052)"
         style="stroke-width:3.67534">
        <g
           id="g1497"
           style="stroke-width:3.67534">
          <path
             d="m 500.633,341.391 c 0,-0.002 0,-0.004 0,-0.006 0,-0.133 -0.014,-0.262 -0.02,-0.394 -0.2,-5.008 -2.229,-9.691 -5.809,-13.256 l -25.344,-25.22 c -3.067,-3.051 -8.029,-3.042 -11.083,0.027 -3.053,3.068 -3.041,8.03 0.027,11.082 l 20.019,19.921 h -46.781 c -0.406,-0.544 -0.842,-1.072 -1.332,-1.561 l -37.64,-37.453 c -0.485,-0.482 -1.008,-0.91 -1.55,-1.31 v -46.543 l 48.481,48.239 c 3.068,3.053 8.03,3.041 11.082,-0.027 3.053,-3.069 3.041,-8.03 -0.027,-11.082 l -53.712,-53.443 c -3.594,-3.576 -8.323,-5.595 -13.373,-5.769 -0.096,-0.003 -0.191,-0.015 -0.288,-0.015 -0.002,0 -0.003,0 -0.005,0 -0.136,-0.002 -0.27,-0.02 -0.405,-0.02 -5.314,0 -10.312,2.061 -14.074,5.803 l -97.861,97.371 c -3.77,3.753 -5.846,8.746 -5.846,14.057 0,5.311 2.076,10.303 5.848,14.058 l 97.86,97.373 c 3.589,3.568 8.307,5.586 13.346,5.767 0.002,0 0.003,0 0.005,0 0.24,0.008 0.479,0.034 0.721,0.034 5.312,0 10.31,-2.06 14.073,-5.803 l 97.861,-97.372 c 3.77,-3.753 5.846,-8.746 5.846,-14.057 0.001,-0.133 -0.016,-0.266 -0.019,-0.401 z M 375.447,245.86 v 46.792 c -0.847,0.538 -1.647,1.161 -2.375,1.885 l -37.639,37.451 c -0.82,0.817 -1.511,1.725 -2.093,2.692 h -47.156 z m -1.137,190.735 -8.579,-8.536 -78.095,-77.706 h 46.7 c 0.342,0.432 0.702,0.853 1.098,1.247 l 37.639,37.452 c 0.392,0.39 0.808,0.744 1.236,1.08 v 46.463 z m 8.562,-59.904 -35.072,-34.898 35.072,-34.898 35.072,34.898 z m 7.112,61.348 0.001,-46.916 c 0.964,-0.577 1.872,-1.261 2.69,-2.073 l 37.64,-37.452 c 0.731,-0.728 1.36,-1.528 1.903,-2.376 h 47.031 z"
             id="path1495"
             style="stroke-width:3.67534" />
        </g>
      </g>
    </g>
  </g>
</svg>
