<?xml version="1.0" encoding="UTF-8" standalone="no"?>
<svg
   xmlns:dc="http://purl.org/dc/elements/1.1/"
   xmlns:cc="http://creativecommons.org/ns#"
   xmlns:rdf="http://www.w3.org/1999/02/22-rdf-syntax-ns#"
   xmlns:svg="http://www.w3.org/2000/svg"
   xmlns="http://www.w3.org/2000/svg"
   xmlns:sodipodi="http://sodipodi.sourceforge.net/DTD/sodipodi-0.dtd"
   xmlns:inkscape="http://www.inkscape.org/namespaces/inkscape"
   width="210mm"
   height="297mm"
   viewBox="0 0 210 297"
   version="1.1"
   id="svg8"
   sodipodi:docname="mouse.svg"
   inkscape:version="1.0.2 (e86c870, 2021-01-15)">
  <defs
     id="defs2">
    <inkscape:path-effect
       effect="bspline"
       id="path-effect1055"
       is_visible="true"
       lpeversion="1"
       weight="33.333333"
       steps="2"
       helper_size="0"
       apply_no_weight="true"
       apply_with_weight="true"
       only_selected="false" />
    <inkscape:path-effect
       effect="bspline"
       id="path-effect1051"
       is_visible="true"
       lpeversion="1"
       weight="33.333333"
       steps="2"
       helper_size="0"
       apply_no_weight="true"
       apply_with_weight="true"
       only_selected="false" />
    <inkscape:path-effect
       effect="bspline"
       id="path-effect987"
       is_visible="true"
       lpeversion="1"
       weight="33.333333"
       steps="2"
       helper_size="0"
       apply_no_weight="true"
       apply_with_weight="true"
       only_selected="false" />
    <inkscape:path-effect
       effect="bspline"
       id="path-effect983"
       is_visible="true"
       lpeversion="1"
       weight="33.333333"
       steps="2"
       helper_size="0"
       apply_no_weight="true"
       apply_with_weight="true"
       only_selected="false" />
    <inkscape:path-effect
       effect="bspline"
       id="path-effect979"
       is_visible="true"
       lpeversion="1"
       weight="33.333333"
       steps="2"
       helper_size="0"
       apply_no_weight="true"
       apply_with_weight="true"
       only_selected="false" />
    <inkscape:path-effect
       effect="bspline"
       id="path-effect971"
       is_visible="true"
       lpeversion="1"
       weight="33.333333"
       steps="2"
       helper_size="0"
       apply_no_weight="true"
       apply_with_weight="true"
       only_selected="false" />
    <inkscape:path-effect
       effect="bspline"
       id="path-effect963"
       is_visible="true"
       lpeversion="1"
       weight="33.333333"
       steps="2"
       helper_size="0"
       apply_no_weight="true"
       apply_with_weight="true"
       only_selected="false" />
    <inkscape:path-effect
       effect="bspline"
       id="path-effect947"
       is_visible="true"
       lpeversion="1"
       weight="33.333333"
       steps="2"
       helper_size="0"
       apply_no_weight="true"
       apply_with_weight="true"
       only_selected="false" />
  </defs>
  <sodipodi:namedview
     id="base"
     pagecolor="#ffffff"
     bordercolor="#666666"
     borderopacity="1.0"
     inkscape:pageopacity="0.0"
     inkscape:pageshadow="2"
     inkscape:zoom="1.979899"
     inkscape:cx="23.27614"
     inkscape:cy="190.91256"
     inkscape:document-units="mm"
     inkscape:current-layer="layer1"
     inkscape:document-rotation="0"
     showgrid="false"
     inkscape:window-width="1920"
     inkscape:window-height="1017"
     inkscape:window-x="-8"
     inkscape:window-y="-8"
     inkscape:window-maximized="1" />
  <metadata
     id="metadata5">
    <rdf:RDF>
      <cc:Work
         rdf:about="">
        <dc:format>image/svg+xml</dc:format>
        <dc:type
           rdf:resource="http://purl.org/dc/dcmitype/StillImage" />
        <dc:title></dc:title>
      </cc:Work>
    </rdf:RDF>
  </metadata>
  <g
     inkscape:label="Warstwa 1"
     inkscape:groupmode="layer"
     id="layer1">
    <path
       id="path86"
       style="fill:#803300;fill-opacity:1;stroke-width:0.0334087"
       d="m 74.143795,66.295547 c -15.033363,-16.289789 -7.516681,-8.144894 0,0 z m -0.0677,-0.274402 c -14.988233,-16.106854 -7.494117,-8.053427 0,0 z"
       sodipodi:nodetypes="cccc" />
    <path
       style="fill:#803300;stroke-width:0.0315673"
       d=""
       id="path90"
       transform="scale(0.26458333)" />
    <path
       style="opacity:1;fill:#803300;fill-opacity:1;stroke:#e41e12;stroke-width:0.00303712;stroke-miterlimit:4;stroke-dasharray:none;stroke-opacity:1"
       d=""
       id="path1072"
       transform="scale(0.26458333)" />
    <g
       id="g1128"
       transform="translate(-2.7403274,0.85044643)">
      <path
         id="path993"
         style="opacity:1;fill:#803300;fill-opacity:1;stroke:#3d1e00;stroke-width:0.79375;stroke-miterlimit:4;stroke-dasharray:none;stroke-opacity:1"
         d="m 20.799035,58.1723 c -0.307959,0.0095 -0.312095,0.113292 -0.510048,0.4377 -0.149416,0.24487 -0.271817,0.458445 -0.271817,0.474389 0,0.01594 0.175773,0.109742 0.390157,0.208256 0.334484,0.153703 0.455634,0.183829 0.855763,0.211874 0.256458,0.01797 0.511516,0.0559 0.566888,0.08475 0.159872,0.08329 2.100932,1.279499 2.992067,1.843815 0.446818,0.282951 0.822407,0.550824 0.834573,0.595312 0.01216,0.04449 0.03526,0.158168 0.05116,0.252698 0.02821,0.167775 0.02493,0.172486 -0.13539,0.191203 -0.156842,0.01831 -0.164846,0.01184 -0.178284,-0.141077 -0.01323,-0.150438 -0.05563,-0.186687 -0.699183,-0.596346 -0.376796,-0.239852 -1.213189,-0.761577 -1.858285,-1.159619 l -1.172538,-0.723987 -0.433565,-0.04082 c -0.418991,-0.03961 -0.459063,-0.03421 -1.19476,0.154512 l -0.761193,0.194821 -0.307991,0.69143 -0.30851,0.690914 0.256834,0.170532 0.256831,0.171049 0.522965,-0.159163 c 0.287647,-0.08733 0.579197,-0.157917 0.647507,-0.157096 0.229872,0.0027 0.852659,0.163458 0.947229,0.244429 0.08772,0.07511 0.703998,0.305683 2.457212,0.919324 1.107117,0.387501 1.173083,0.440577 1.487765,1.195276 l 0.225828,0.541052 -0.104387,0.08475 c -0.05747,0.04653 -0.120623,0.08475 -0.140044,0.08475 -0.01942,0 -0.136091,-0.243753 -0.259416,-0.541569 -0.296015,-0.714845 -0.295047,-0.714201 -1.489831,-1.128614 -1.453063,-0.503997 -2.245553,-0.798007 -2.315104,-0.858345 -0.05504,-0.04774 -0.208259,-0.0536 -0.685229,-0.02636 l -0.614434,0.03514 -0.496094,0.353467 c -0.272851,0.194323 -0.729596,0.488394 -1.015441,0.653707 -0.285845,0.165311 -0.528426,0.307593 -0.538986,0.315743 -0.03467,0.02676 0.382821,1.102258 0.427882,1.102258 0.02419,0 0.420367,-0.09405 0.880565,-0.208773 0.460203,-0.114719 1.193144,-0.286886 1.628841,-0.382922 l 0.7922,-0.174667 0.729673,0.434599 c 0.401185,0.239178 0.749334,0.459848 0.773594,0.489893 0.111329,0.137843 0.904602,1.61026 0.904338,1.67845 -3.89e-4,0.0916 -0.790369,2.986101 -0.824238,3.019971 -0.02038,0.02038 -3.043468,-0.738303 -3.090767,-0.775663 -0.0098,-0.0077 0.01901,-0.36553 0.06408,-0.795301 0.04507,-0.42977 0.07111,-0.809416 0.05788,-0.843876 -0.01322,-0.03446 -0.312632,-0.248675 -0.665078,-0.47594 l -0.640787,-0.413411 -0.828889,0.435632 -0.829408,0.435116 0.0124,1.275374 0.0124,1.275374 1.84278,1.036113 1.842784,1.036112 2.348177,0.49041 c 0.08995,0.01878 0.151939,0.03078 0.240294,0.04909 l 1.631942,3.857129 1.236102,-1.102775 1.670182,0.133842 2.439128,0.133842 0.701765,-1.2361 1.403014,-0.701766 2.004531,-0.802018 -0.601515,-1.770435 -2.205035,-1.035596 -1.978689,-1.369942 -0.188618,-1.635042 -0.92501,-1.923914 -0.925523,-1.923913 -1.177706,-1.395781 -1.177189,-1.39578 -1.350306,-0.834058 -1.350307,-0.834058 -0.897617,-0.06149 c -0.511241,-0.03502 -0.805347,-0.06356 -0.990121,-0.05788 z" />
      <path
         style="fill:#6f3300;fill-opacity:1;stroke:#3d1e00;stroke-width:0.278433px;stroke-linecap:butt;stroke-linejoin:miter;stroke-opacity:1"
         d="m 23.547599,72.836346 2.819409,-0.722829 3.020796,-1.548919 0.855893,-2.168488 -0.591573,-1.394028 -0.909763,2.736427 -2.618023,1.497288 -3.272529,0.800275 z"
         id="path1124" />
    </g>
    <g
       id="g1139"
       transform="translate(-3.6852678,-2.1733631)">
      <g
         id="g1062"
         style="fill:#803300;fill-opacity:1;stroke:#741e00;stroke-width:0.0529167;stroke-miterlimit:4;stroke-dasharray:none;stroke-opacity:1"
         transform="translate(-23.219826,7.0918022)">
        <path
           id="path1009"
           style="fill:#803300;fill-opacity:1;stroke:#741e00;stroke-width:0.2;stroke-linecap:butt;stroke-linejoin:miter;stroke-miterlimit:4;stroke-dasharray:none;stroke-opacity:1"
           d="m 147.32124,118.67622 -3.57226,2.14453 0.26757,3.39258 8.49678,9.03095 11.68394,15.50572 -0.0195,2.43555 -1.63281,1.35742 -1.85299,-1.25 -0.33451,-4.15039 -1.51758,-3.75 -4.0625,-1.69727 -3.47944,4.29468 c 0,0 0.6474,5.72782 0.6474,5.9064 0,0.17858 4.8894,8.12437 4.8894,8.12437 l 5.68751,1.98521 4.28443,1.1288 6.6875,7.58007 3.2832,12.375 7.32227,-11.61718 15.40625,-0.75782 -3.22123,-7.76499 10.86073,1.26345 -12.87957,-9.91226 1.00886,-5.68253 -2.47015,-7.77981 -1.61865,-5.86067 -6.64517,-8.27901 -3.51548,-2.14994 -2.58686,1.87837 0.35742,3.57227 -0.041,0.18945 -1.38867,-1.43945 -3.83789,-1.42969 -1.74162,1.34041 0.17773,3.21289 -0.0742,0.46094 -2.15625,-2.42383 -3.21484,-1.33985 -2.14593,1.33957 -0.53321,3.21484 2.84568,4.18655 0.19848,1.71307 -8.74525,-10.72449 -8.18889,-7.90526 z"
           transform="scale(0.26458333)"
           sodipodi:nodetypes="ccccccccccccscccccccccccccccccccccccccccccccc" />
        <path
           style="opacity:1;fill:#803300;fill-opacity:1;stroke:#741e00;stroke-width:0.2;stroke-miterlimit:4;stroke-dasharray:none;stroke-opacity:1"
           d="m 175.53959,175.8525 -1.38264,-5.35447 -3.46633,-3.94816 -3.46633,-3.94816 -2.08951,-0.55893 c -1.14923,-0.30741 -3.39639,-1.01414 -4.9937,-1.57051 l -2.90419,-1.01159 -2.34288,-3.88094 -2.34289,-3.88094 -0.28836,-2.7579 -0.28836,-2.75791 1.46013,-1.80718 c 0.80308,-0.99395 1.53257,-1.80751 1.6211,-1.80791 0.0885,-4e-4 0.86488,0.29806 1.72524,0.66325 1.52898,0.64899 1.57958,0.70171 2.24256,2.3367 0.43187,1.06505 0.75614,2.48689 0.89259,3.91381 0.22733,2.3773 0.27046,2.45265 1.91985,3.35446 0.8088,0.44222 0.81339,0.44136 1.76777,-0.32993 0.84754,-0.68495 0.98076,-0.94865 1.16607,-2.30811 l 0.20921,-1.53482 -6.19451,-8.16121 c -4.57435,-6.02667 -7.25262,-9.28408 -10.24008,-12.45436 l -4.04557,-4.29315 -0.008,-1.30417 c -0.007,-1.29613 2.7e-4,-1.30896 1.25896,-2.08344 0.69657,-0.4286 1.38636,-0.77927 1.53286,-0.77927 1.40565,0 9.19984,7.74844 15.31954,15.22962 2.70483,3.30659 4.96964,5.96021 5.0329,5.89694 0.0633,-0.0633 8.1e-4,-0.93921 -0.13877,-1.94653 -0.22258,-1.60621 -0.42231,-2.0753 -1.62369,-3.81343 l -1.36989,-1.98192 0.24001,-1.32591 c 0.132,-0.72924 0.37219,-1.40335 0.53375,-1.49801 0.16156,-0.0947 0.5128,-0.33518 0.78053,-0.53449 0.79253,-0.58996 2.9729,0.52345 4.64634,2.37266 0.74309,0.82114 1.4547,1.42894 1.58137,1.35065 0.12667,-0.0783 0.2303,-1.08397 0.2303,-2.23486 0,-1.78779 0.0753,-2.16066 0.51692,-2.56033 0.50437,-0.45646 0.56017,-0.45281 2.3003,0.15026 1.28961,0.44694 2.02032,0.88027 2.63915,1.56508 1.30424,1.44331 1.45895,1.28707 1.2911,-1.30383 l -0.14583,-2.25085 0.97998,-0.67912 0.97998,-0.67913 1.51042,0.91753 c 1.23231,0.74859 2.11246,1.67169 4.78016,5.01342 3.11104,3.89707 3.29615,4.19395 3.81371,6.11619 0.29919,1.11116 1.18745,4.10365 1.97392,6.64997 l 1.42995,4.62966 -0.45757,2.75114 c -0.25167,1.51313 -0.39753,2.90763 -0.32414,3.09889 0.0734,0.19126 2.534,2.19749 5.46801,4.4583 2.93401,2.26081 5.29474,4.15038 5.24608,4.19904 -0.0487,0.0487 -2.05389,-0.14319 -4.45606,-0.42635 -2.40217,-0.28315 -4.42851,-0.45389 -4.50299,-0.37941 -0.0745,0.0745 0.55249,1.81408 1.39325,3.86579 0.84076,2.05171 1.4942,3.76582 1.45208,3.80913 -0.0706,0.0726 -12.56019,0.78278 -14.03853,0.79831 -0.56979,0.006 -1.05673,0.65076 -3.91434,5.18312 -1.79498,2.84696 -3.32326,5.17662 -3.39618,5.17703 -0.0729,5.1e-4 -0.75477,-2.40877 -1.51523,-5.35372 z"
           id="path1027"
           inkscape:transform-center-x="-2.138165"
           inkscape:transform-center-y="-0.53453904"
           transform="scale(0.26458333)" />
        <path
           style="fill:#803318;fill-opacity:1;stroke:#741e00;stroke-width:0.00064831;stroke-linecap:butt;stroke-linejoin:miter;stroke-miterlimit:4;stroke-dasharray:none;stroke-opacity:1"
           d="m 45.4989,34.891485 c -0.05983,-0.02977 -0.122828,-0.06112 -0.09947,-0.02114 0.02336,0.03998 0.133599,0.150222 0.20032,0.221251 0.06672,0.07103 0.09035,0.102526 0.161256,0.193059 0.07091,0.09053 0.189027,0.240148 0.263845,0.334635 0.07482,0.09449 0.106317,0.133859 0.129124,0.189067 0.02281,0.05521 0.03856,0.126085 0.0546,0.181262 0.01605,0.05518 0.0318,0.09455 0.04627,0.130731"
           id="path1049"
           inkscape:original-d="m 45.4989,34.891485 c -0.06036,-0.02871 -0.123356,-0.06006 -0.189005,-0.09405 0.11289,0.112887 0.223131,0.223131 0.330729,0.33073 0.02627,0.03414 0.04989,0.06564 0.07087,0.09449 0.120763,0.152262 0.238879,0.301876 0.354351,0.448847 0.03414,0.04202 0.06564,0.08139 0.0945,0.118118 0.01839,0.07351 0.03414,0.144386 0.04725,0.212611 0.01839,0.04202 0.03415,0.08139 0.04725,0.118118"
           inkscape:path-effect="#path-effect1051" />
        <path
           style="fill:#803318;fill-opacity:1;stroke:#741e00;stroke-width:0.00025932;stroke-linecap:butt;stroke-linejoin:miter;stroke-miterlimit:4;stroke-dasharray:none;stroke-opacity:1"
           d="m 47.29554,34.445884 c 0.167005,0.246217 0.331945,0.489391 0.430294,0.630596 0.09835,0.141205 0.129846,0.180578 0.144433,0.204078 0.01459,0.0235 0.01459,0.03136 0.03136,0.05913 0.01677,0.02777 0.04826,0.07502 0.063,0.106309 0.01473,0.03129 0.01473,0.04704 0.0071,0.0079 -0.0076,-0.03919 -0.02337,-0.133685 -0.03963,-0.231182"
           id="path1053"
           inkscape:original-d="m 47.29554,34.445884 c 0.167587,0.245822 0.332529,0.488995 0.494824,0.729525 0.03414,0.04202 0.06564,0.08139 0.09449,0.118118 0.0026,0.01053 0.0026,0.01839 0,0.02363 0.03415,0.04989 0.06564,0.09714 0.0945,0.141743 0.0026,0.01839 0.0026,0.03414 0,0.04725 -0.0131,-0.09185 -0.02885,-0.186344 -0.04725,-0.283483"
           inkscape:path-effect="#path-effect1055" />
        <path
           style="opacity:1;fill:#803300;fill-opacity:1;stroke:#3d1e00;stroke-width:3;stroke-miterlimit:4;stroke-dasharray:none;stroke-opacity:0.956863"
           d="m 93.313254,207.39691 c -0.293785,-1.07645 -0.901619,-3.40132 -1.350738,-5.16639 l -0.816582,-3.20921 -3.496045,-3.98018 -3.496041,-3.98017 -3.074013,-0.89738 c -1.690707,-0.49355 -3.949512,-1.21702 -5.019566,-1.60769 l -1.945552,-0.71032 -2.294749,-3.79784 -2.294748,-3.79783 -0.278276,-2.73323 -0.278276,-2.73323 1.34281,-1.65504 c 0.738546,-0.91027 1.521842,-1.65393 1.740658,-1.65258 0.218816,0.001 0.982224,0.27457 1.696464,0.60713 1.185788,0.55212 1.346119,0.73161 1.845343,2.0659 0.300699,0.80369 0.696988,2.43399 0.880643,3.6229 0.424238,2.74632 0.475437,2.85589 1.640451,3.51066 1.200972,0.67499 1.487862,0.671 2.320617,-0.0323 0.86797,-0.73302 1.138599,-1.30428 1.341632,-2.83197 l 0.167813,-1.2627 -4.705281,-6.16942 c -6.980496,-9.15263 -8.816131,-11.36834 -13.439267,-16.22194 -2.313088,-2.4284 -2.335977,-2.4649 -2.335977,-3.72562 0,-1.26954 0.0038,-1.27533 1.310759,-2.02179 1.281953,-0.73216 1.32774,-0.73921 2.083439,-0.32078 1.470986,0.81447 10.407898,10.04333 14.781548,15.26444 2.41429,2.88209 4.543865,5.24016 4.732389,5.24016 0.266027,0 0.305945,-0.29684 0.178295,-1.32582 -0.204507,-1.64852 -0.776891,-3.00133 -2.084783,-4.92728 -0.969647,-1.42787 -1.004221,-1.54543 -0.766146,-2.60502 0.649239,-2.88955 2.589479,-2.69109 5.974348,0.61109 1.595415,1.55644 1.812191,1.41614 1.818017,-1.17661 0.0043,-1.92761 0.29376,-2.69819 1.013431,-2.69819 0.996604,0 3.21131,1.03781 4.040605,1.89343 0.471509,0.48647 1.050432,0.88449 1.286498,0.88449 0.24032,0 0.796462,0.57231 1.263703,1.30044 0.458968,0.71525 0.879254,1.16616 0.933964,1.00202 0.05471,-0.16413 -0.291244,-0.77774 -0.768792,-1.36357 -0.792272,-0.97193 -0.882582,-1.25453 -1.031848,-3.2289 l -0.163584,-2.16374 0.745329,-0.55104 c 0.965918,-0.71413 1.120814,-0.69998 2.578841,0.23563 1.210673,0.77689 3.724373,3.58277 6.377633,7.11894 1.45218,1.93541 1.39995,1.79975 4.02221,10.44804 l 1.39183,4.59033 -0.36168,2.2282 c -0.62677,3.86126 -0.77488,3.50851 2.60372,6.20112 1.63202,1.30066 3.90418,3.09804 5.04923,3.99418 1.14504,0.89614 5.61891,3.18641 5.46639,3.23753 -0.25451,0.0853 -8.08184,-1.81068 -10.64189,-2.15325 -1.40399,-0.18788 -1.39651,-0.0821 0.29768,4.20687 0.74068,1.8751 2.45934,4.00534 2.43028,4.0394 -0.0291,0.0341 -4.36231,-0.32399 -8.2405,-0.10117 -3.87818,0.22283 -7.19295,0.52111 -7.36614,0.66285 -0.1732,0.14175 -1.693992,2.40329 -3.379537,5.02566 -1.685543,2.62237 -3.666123,8.65351 -3.317917,6.3463 0.0052,-0.0348 -0.114854,-2.45909 -0.408642,-3.53553 z m -2.283882,-43.84964 c -0.290959,-0.47078 -0.721557,-1.0108 -0.956889,-1.20003 -0.298899,-0.24035 -0.245303,-0.0396 0.177804,0.66609 0.333123,0.55558 0.72554,1.21015 0.872037,1.45459 0.146498,0.24443 0.304541,0.32988 0.35121,0.18987 0.04667,-0.14001 -0.153202,-0.63974 -0.444162,-1.11052 z"
           id="path1074"
           transform="matrix(0.26458333,0,0,0.26458333,22.017113,-7.5595238)"
           sodipodi:nodetypes="sscccsscccccscsssssscssssssssssssssssssscsssscsssssssssssssssssss" />
      </g>
      <path
         style="fill:#6f3300;fill-opacity:1;stroke:#3f1e00;stroke-width:0.264583px;stroke-linecap:butt;stroke-linejoin:miter;stroke-opacity:1"
         d="m 28.21426,46.428279 -2.389342,2.198071 -2.314638,0.916711 -2.485346,0.570443 0.612781,0.927912 2.149273,-0.610997 2.655991,-1.00226 1.736695,-1.510874 z"
         id="path1130"
         sodipodi:nodetypes="ccccccccc" />
    </g>
    <g
       id="g1156"
       transform="translate(0.28348192,-1.5119047)">
      <path
         style="opacity:1;fill:#803300;fill-opacity:1;stroke:#3d1d00;stroke-width:0.79375;stroke-miterlimit:4;stroke-dasharray:none;stroke-opacity:0.964706"
         d="m 11.615532,18.15991 14.032366,6.66183 -2.740328,3.260045 3.449033,2.598586 -2.362351,2.456845 -3.449033,-3.165551 -2.882068,2.882069 z"
         id="path76" />
      <path
         style="fill:#6f3300;fill-opacity:1;stroke:#401e00;stroke-width:0.264583px;stroke-linecap:butt;stroke-linejoin:miter;stroke-opacity:1"
         d="m 18.534065,21.214171 -0.09247,11.044437 1.436574,-1.404842 -0.06682,-9.004482 z"
         id="path1141"
         sodipodi:nodetypes="ccccc" />
      <path
         style="fill:#6f3300;fill-opacity:1;stroke:#401e00;stroke-width:0.264583px;stroke-linecap:butt;stroke-linejoin:miter;stroke-opacity:1"
         d="m 16.804571,20.429414 -1.219417,-0.61806 -0.100226,8.201832 1.169305,2.722808 z"
         id="path1143"
         sodipodi:nodetypes="ccccc" />
      <path
         style="fill:#6f3300;fill-opacity:1;stroke:#401e00;stroke-width:0.264583px;stroke-linecap:butt;stroke-linejoin:miter;stroke-opacity:1"
         d="m 14.014946,19.076362 -1.319643,-0.618061 0.150338,3.207234 1.26953,3.240643 z"
         id="path1145"
         sodipodi:nodetypes="ccccc" />
      <path
         style="fill:#6f3300;fill-opacity:1;stroke:#401e00;stroke-width:0.264583px;stroke-linecap:butt;stroke-linejoin:miter;stroke-opacity:1"
         d="m 21.582014,22.60098 0.05011,8.602736 1.252826,1.152601 0.01671,-9.087163 z"
         id="path1149"
         sodipodi:nodetypes="ccccc" />
    </g>
  </g>
</svg>
