<?xml version="1.0" encoding="UTF-8" standalone="no"?>
<svg
   xmlns:dc="http://purl.org/dc/elements/1.1/"
   xmlns:cc="http://creativecommons.org/ns#"
   xmlns:rdf="http://www.w3.org/1999/02/22-rdf-syntax-ns#"
   xmlns:svg="http://www.w3.org/2000/svg"
   xmlns="http://www.w3.org/2000/svg"
   xmlns:xlink="http://www.w3.org/1999/xlink"
   xmlns:sodipodi="http://sodipodi.sourceforge.net/DTD/sodipodi-0.dtd"
   xmlns:inkscape="http://www.inkscape.org/namespaces/inkscape"
   width="210mm"
   height="297mm"
   viewBox="0 0 210 297"
   version="1.1"
   id="svg8"
   inkscape:version="1.0.2 (e86c870, 2021-01-15)"
   sodipodi:docname="vial_bottom.svg">
  <defs
     id="defs2">
    <linearGradient
       inkscape:collect="always"
       id="linearGradient1160">
      <stop
         style="stop-color:#00ffff;stop-opacity:0.69758064"
         offset="0"
         id="stop1156" />
      <stop
         style="stop-color:#ffffff;stop-opacity:0.49596775"
         offset="0.66666669"
         id="stop1228" />
      <stop
         style="stop-color:#00ffff;stop-opacity:0.69999999"
         offset="1"
         id="stop1158" />
    </linearGradient>
    <linearGradient
       inkscape:collect="always"
       xlink:href="#linearGradient1160"
       id="linearGradient1166-9"
       x1="60"
       y1="280"
       x2="180"
       y2="300"
       gradientUnits="userSpaceOnUse"
       spreadMethod="pad"
       gradientTransform="matrix(0.26458333,0,0,0.26458333,23.8125,29.104176)" />
  </defs>
  <sodipodi:namedview
     id="base"
     pagecolor="#ffffff"
     bordercolor="#666666"
     borderopacity="1.0"
     inkscape:pageopacity="0.0"
     inkscape:pageshadow="2"
     inkscape:zoom="0.98994949"
     inkscape:cx="310.94201"
     inkscape:cy="551.8203"
     inkscape:document-units="mm"
     inkscape:current-layer="g888"
     inkscape:document-rotation="0"
     showgrid="true"
     inkscape:window-width="1920"
     inkscape:window-height="1017"
     inkscape:window-x="-8"
     inkscape:window-y="-8"
     inkscape:window-maximized="1"
     inkscape:snap-bbox="true"
     inkscape:bbox-paths="true"
     inkscape:bbox-nodes="true"
     inkscape:snap-bbox-edge-midpoints="true"
     inkscape:snap-bbox-midpoints="true"
     inkscape:object-paths="true"
     inkscape:snap-intersection-paths="true"
     inkscape:snap-smooth-nodes="true"
     inkscape:snap-midpoints="true"
     inkscape:snap-object-midpoints="true"
     inkscape:snap-center="true"
     inkscape:snap-text-baseline="true"
     inkscape:snap-page="true">
    <inkscape:grid
       type="xygrid"
       id="grid833" />
  </sodipodi:namedview>
  <metadata
     id="metadata5">
    <rdf:RDF>
      <cc:Work
         rdf:about="">
        <dc:format>image/svg+xml</dc:format>
        <dc:type
           rdf:resource="http://purl.org/dc/dcmitype/StillImage" />
        <dc:title></dc:title>
      </cc:Work>
    </rdf:RDF>
  </metadata>
  <g
     inkscape:label="Layer 1"
     inkscape:groupmode="layer"
     id="layer1">
    <g
       inkscape:label="Layer 1"
       id="layer1-5"
       transform="translate(9.93323,98.557053)">
      <g
         id="g888"
         transform="translate(90.608437,-74.74455)">
        <circle
           style="fill:#ffffff;fill-opacity:0.495968;fill-rule:nonzero;stroke:#0020d4;stroke-width:0;stroke-linecap:butt;stroke-linejoin:miter;stroke-miterlimit:4;stroke-dasharray:none;stroke-dashoffset:5;stroke-opacity:0.540323;paint-order:markers fill stroke"
           id="path1249"
           sodipodi:type="arc"
           sodipodi:cx="43.534561"
           sodipodi:cy="186.68591"
           sodipodi:rx="1.8626863"
           sodipodi:ry="2.8004916"
           sodipodi:start="0"
           sodipodi:end="3.1415927"
           sodipodi:arc-type="slice"
           d="m 45.397247,186.68591 a 1.8626863,2.8004916 0 0 1 -0.931343,2.4253 1.8626863,2.8004916 0 0 1 -1.862686,0 1.8626863,2.8004916 0 0 1 -0.931343,-2.4253 h 1.862686 z" />
        <circle
           style="fill:#ffffff;fill-opacity:0.495968;fill-rule:nonzero;stroke:#0020d4;stroke-width:0;stroke-linecap:butt;stroke-linejoin:miter;stroke-miterlimit:4;stroke-dasharray:none;stroke-dashoffset:5;stroke-opacity:0.540323;paint-order:markers fill stroke"
           id="path1251"
           sodipodi:type="arc"
           sodipodi:cx="43.65625"
           sodipodi:cy="185.8698"
           sodipodi:rx="1.984375"
           sodipodi:ry="1.984375"
           sodipodi:start="0"
           sodipodi:end="3.1415927"
           sodipodi:arc-type="slice"
           d="m 45.640625,185.8698 a 1.984375,1.984375 0 0 1 -0.992188,1.71852 1.984375,1.984375 0 0 1 -1.984375,0 1.984375,1.984375 0 0 1 -0.992187,-1.71852 h 1.984375 z" />
        <circle
           style="fill:#ffffff;fill-opacity:0.495968;fill-rule:nonzero;stroke:#0020d4;stroke-width:0;stroke-linecap:butt;stroke-linejoin:miter;stroke-miterlimit:4;stroke-dasharray:none;stroke-dashoffset:5;stroke-opacity:0.540323;paint-order:markers fill stroke"
           id="path1253"
           sodipodi:type="arc"
           sodipodi:cx="51.59375"
           sodipodi:cy="193.14583"
           sodipodi:rx="9.921875"
           sodipodi:ry="9.260417"
           sodipodi:start="0"
           sodipodi:end="3.1415927"
           sodipodi:arc-type="slice"
           d="m 61.515625,193.14583 a 9.921875,9.260417 0 0 1 -4.960938,8.01975 9.921875,9.260417 0 0 1 -9.921875,0 9.921875,9.260417 0 0 1 -4.960937,-8.01975 h 9.921875 z" />
        <circle
           style="fill:#ffffff;fill-opacity:0.495968;fill-rule:nonzero;stroke:#0020d4;stroke-width:0;stroke-linecap:butt;stroke-linejoin:miter;stroke-miterlimit:4;stroke-dasharray:none;stroke-dashoffset:5;stroke-opacity:0.540323;paint-order:markers fill stroke"
           id="path1255"
           sodipodi:type="arc"
           sodipodi:cx="56.885414"
           sodipodi:cy="195.79167"
           sodipodi:rx="4.6302085"
           sodipodi:ry="6.614583"
           sodipodi:start="0"
           sodipodi:end="3.1415927"
           sodipodi:arc-type="slice"
           d="m 61.515623,195.79167 a 4.6302085,6.614583 0 0 1 -2.315105,5.7284 4.6302085,6.614583 0 0 1 -4.630208,0 4.6302085,6.614583 0 0 1 -2.315104,-5.7284 h 4.630208 z" />
        <path
           id="path1262"
           style="fill:#ff00ff;fill-opacity:1;fill-rule:nonzero;stroke:#0020d4;stroke-width:0;stroke-linecap:butt;stroke-linejoin:miter;stroke-miterlimit:4;stroke-dasharray:none;stroke-dashoffset:5;stroke-opacity:0.540323;paint-order:markers fill stroke"
           d="m 15.875,179.91666 a 15.875,15.875 0 0 1 -7.9375005,13.74815 15.875,15.875 0 0 1 -15.8750003,0 A 15.875,15.875 0 0 1 -15.875,179.91666 H -3.3333336e-7 Z" />
        <g
           inkscape:label="Layer 1"
           id="layer1-2"
           transform="translate(-55.562497,17.859599)">
          <path
             id="path1029-6"
             style="fill:url(#linearGradient1166-9);fill-opacity:1;fill-rule:nonzero;stroke:#0020d4;stroke-width:1.05833;stroke-linecap:round;stroke-linejoin:round;stroke-dashoffset:5;stroke-opacity:1"
             d="m 55.5625,25.135426 c -9.260417,0 -15.875,3.96875 -15.875,3.96875 h 1.179256 l -0.142627,0.07183 0.245463,0.164848 c 1.076183,0.722373 2.708808,1.610465 4.015776,2.183846 3.177659,1.394074 6.172761,2.118984 9.508464,2.302185 0.88524,0.04862 2.40134,0.0065 3.423047,-0.09508 4.138027,-0.411486 8.500298,-1.954934 12.034398,-4.258654 l 0.45837,-0.299207 -0.13797,-0.06976 h 1.165816 c 0,0 -6.614577,-3.96875 -15.874993,-3.96875 z m 15.874993,3.96875 c 0,0 -6.614577,5.291667 -15.874993,5.291667 -9.260416,0 -15.875,-5.291667 -15.875,-5.291667 V 161.39584 c 5.5e-5,5.67154 3.025806,10.91224 7.9375,13.748 4.911741,2.8358 10.963259,2.8358 15.875,0 4.911687,-2.83576 7.937433,-8.07646 7.937493,-13.748 z" />
        </g>
      </g>
    </g>
  </g>
</svg>
